<?xml version="1.0" standalone="no"?>
<!DOCTYPE svg PUBLIC "-//W3C//DTD SVG 20010904//EN"
 "http://www.w3.org/TR/2001/REC-SVG-20010904/DTD/svg10.dtd">
<svg version="1.0" xmlns="http://www.w3.org/2000/svg"
 width="829.000000pt" height="1063.000000pt" viewBox="0 0 829.000000 1063.000000"
 preserveAspectRatio="xMidYMid meet">

<g transform="translate(0.000000,1063.000000) scale(0.100000,-0.100000)"
fill="#ffffff" stroke="none">
<path d="M3121 10425 c-168 -37 -472 -146 -668 -240 -196 -95 -285 -187 -391
-405 -54 -110 -115 -179 -205 -232 -494 -286 -640 -420 -926 -843 -235 -347
-339 -565 -410 -860 -18 -71 -59 -229 -91 -350 -33 -121 -80 -326 -105 -455
-68 -347 -103 -517 -141 -686 -20 -92 -38 -205 -44 -285 -28 -366 6 -1179 55
-1347 24 -78 69 -132 144 -168 46 -22 67 -38 76 -61 25 -58 90 -91 273 -138
260 -66 575 -98 962 -99 333 -1 456 12 614 65 221 74 444 234 528 379 35 60
140 297 195 440 57 149 89 275 98 380 4 47 14 100 21 118 55 135 217 205 390
169 88 -19 205 -76 229 -113 12 -18 20 -59 25 -129 10 -123 49 -345 96 -550
54 -236 77 -302 135 -386 66 -95 237 -264 311 -308 225 -132 578 -185 1238
-185 262 -1 346 3 436 17 159 25 257 52 354 99 68 33 101 57 165 122 67 68 89
98 132 187 83 169 121 276 138 391 3 21 17 50 30 66 31 37 41 104 55 347 5 99
15 197 21 217 15 45 43 78 68 78 10 0 70 -42 133 -92 64 -51 215 -165 335
-253 l220 -160 7 -179 c3 -99 7 -254 7 -345 1 -91 4 -195 8 -231 7 -64 7 -65
15 -25 22 117 29 138 62 171 20 20 34 43 34 58 0 29 42 66 75 66 39 0 48 23
42 103 -6 82 -45 197 -77 232 -34 37 -41 101 -30 274 26 383 -53 1641 -131
2081 -26 147 -73 288 -143 428 -144 287 -314 533 -557 807 -142 159 -211 248
-271 350 -64 108 -237 288 -367 380 -119 84 -159 123 -227 216 -169 234 -422
498 -522 545 -31 15 -74 42 -94 60 -103 92 -389 185 -703 228 -394 54 -1455
87 -1624 51z m400 -1756 c63 -11 195 -41 294 -66 134 -34 206 -47 281 -51 123
-6 155 4 217 63 25 25 54 45 64 45 24 0 151 -47 288 -105 220 -93 343 -106
592 -59 302 56 303 56 384 -13 85 -73 139 -93 369 -138 123 -24 233 -72 364
-160 64 -42 145 -87 181 -100 83 -29 159 -88 257 -200 155 -177 254 -343 269
-454 6 -40 20 -83 37 -111 l27 -45 -1 -200 c-1 -130 -9 -271 -23 -405 -43
-396 -44 -387 52 -508 86 -108 158 -223 238 -377 80 -156 96 -200 79 -220 -20
-24 -83 -19 -108 8 -78 84 -120 118 -213 167 -140 75 -195 119 -209 169 -6 22
-21 46 -35 55 -31 20 -46 49 -89 170 -73 206 -148 258 -452 315 -198 37 -286
79 -299 143 -11 47 -39 83 -103 130 -32 23 -93 71 -137 108 -159 133 -214 155
-428 170 -313 22 -778 -35 -1084 -135 -184 -59 -224 -104 -244 -272 -14 -115
-37 -168 -76 -176 -35 -7 -165 -125 -218 -198 -20 -27 -41 -65 -46 -84 -16
-58 -51 -70 -204 -70 -91 0 -154 6 -210 19 -96 22 -201 69 -218 99 -7 11 -40
63 -75 115 -35 52 -66 107 -69 122 -3 16 6 66 22 120 37 127 33 144 -63 242
-125 129 -212 172 -465 233 -356 85 -446 99 -652 99 -174 1 -195 -1 -255 -23
-95 -34 -177 -97 -340 -263 -96 -97 -158 -153 -184 -164 -47 -19 -224 -33
-414 -34 l-133 0 5 33 c3 17 8 120 11 227 12 384 34 562 80 631 26 39 44 103
45 153 0 69 99 216 237 353 160 159 316 267 601 417 l183 96 557 1 c306 0 634
4 727 8 192 10 240 23 269 73 37 61 50 68 129 68 41 0 125 -9 188 -21z m-1596
-2019 c4 -6 -18 -10 -59 -10 -36 0 -68 5 -71 10 -4 6 18 10 59 10 36 0 68 -4
71 -10z m-1010 -234 c23 -10 37 -24 41 -41 13 -52 98 -50 136 4 26 37 134 45
568 45 454 1 609 -11 705 -51 33 -14 110 -36 171 -49 173 -35 247 -83 298
-193 31 -67 29 -296 -2 -426 -46 -186 -73 -332 -82 -446 -11 -134 -25 -182
-67 -236 -17 -21 -52 -78 -78 -128 -63 -117 -197 -255 -295 -303 -95 -46 -174
-52 -705 -52 -611 0 -763 14 -896 81 -193 96 -333 466 -369 969 -13 188 0 399
35 534 49 194 106 253 277 291 85 18 220 19 263 1z m4746 -106 c336 -13 378
-19 429 -63 70 -60 161 -73 245 -36 64 28 109 16 163 -46 82 -93 107 -225 91
-478 -21 -337 -99 -769 -168 -930 -82 -190 -218 -307 -416 -357 -219 -56 -731
-37 -1210 45 -433 74 -594 195 -675 510 -54 211 -98 569 -107 872 -7 231 -1
254 86 343 129 132 217 146 911 148 217 1 510 -3 651 -8z"/>
<path d="M1700 5949 c-247 -43 -544 -227 -620 -384 -34 -71 -36 -106 -7 -169
33 -71 70 -92 98 -57 11 13 19 35 19 50 1 98 125 233 292 317 122 61 281 93
294 59 3 -8 -8 -56 -26 -107 -43 -125 -51 -263 -22 -356 42 -133 90 -166 294
-207 71 -14 170 -39 221 -55 52 -17 103 -30 113 -30 47 0 100 70 188 247 119
239 124 355 20 442 -80 67 -367 186 -559 232 -98 23 -231 31 -305 18z m405
-223 c17 -26 8 -65 -22 -98 -39 -43 -113 1 -113 66 0 42 18 55 77 56 34 0 46
-5 58 -24z"/>
<path d="M5190 5839 c-134 -15 -398 -92 -505 -147 -90 -47 -258 -208 -253
-243 5 -37 24 -33 75 14 62 57 102 77 156 77 63 0 68 -10 61 -126 -8 -120 5
-176 70 -316 l45 -98 345 0 345 0 42 128 c38 114 42 137 43 227 0 84 -4 113
-27 178 -33 94 -34 123 -7 132 33 10 86 -13 148 -66 31 -26 68 -51 82 -54 38
-8 131 -85 190 -156 48 -58 59 -77 89 -151 21 -54 101 -22 101 41 0 41 -24
104 -62 159 -166 242 -619 436 -938 401z m-87 -151 c22 -11 57 -67 57 -90 0
-32 -29 -48 -89 -48 -95 0 -139 55 -95 118 28 40 74 47 127 20z"/>
<path d="M7975 4150 c-35 -38 11 -140 64 -140 26 0 41 29 41 79 0 70 -63 107
-105 61z"/>
<path d="M8001 3934 c-41 -52 -62 -258 -29 -290 24 -24 46 -11 71 43 36 80 27
273 -13 273 -5 0 -18 -12 -29 -26z"/>
<path d="M7789 3857 c-72 -48 -109 -208 -67 -290 14 -28 76 -19 100 14 24 32
43 168 34 233 -10 62 -25 72 -67 43z"/>
<path d="M7506 3799 c-7 -46 3 -141 14 -134 21 13 21 175 0 175 -4 0 -10 -18
-14 -41z"/>
<path d="M2665 3686 c-9 -14 -15 -39 -13 -58 4 -42 42 -64 208 -118 146 -48
256 -63 266 -36 15 39 -122 135 -290 203 -100 40 -149 43 -171 9z"/>
<path d="M3720 3620 c-65 -14 -101 -30 -132 -58 -52 -48 -31 -82 49 -82 58 0
331 54 345 68 14 14 -29 50 -71 62 -55 16 -141 20 -191 10z"/>
<path d="M8046 3564 c-9 -23 -7 -67 3 -83 7 -11 11 -10 20 7 17 32 11 92 -9
92 -4 0 -11 -7 -14 -16z"/>
<path d="M7419 3543 c-28 -7 -41 -55 -49 -179 -8 -126 -10 -133 -71 -225 -20
-30 -75 -130 -122 -222 -112 -218 -155 -279 -219 -313 -38 -20 -56 -18 -123
16 -78 39 -103 38 -160 -6 -26 -19 -63 -42 -83 -51 -74 -31 -87 -39 -91 -58
-2 -11 -8 -26 -14 -34 -16 -19 -81 -8 -126 22 -38 25 -49 44 -70 125 -21 77
-59 52 -154 -103 -108 -176 -184 -214 -281 -140 -57 43 -86 44 -169 5 -96 -45
-145 -39 -167 22 -6 18 -15 101 -20 183 -5 83 -16 177 -25 210 -74 284 -304
429 -754 476 -167 17 -692 6 -951 -21 -412 -42 -508 -39 -780 25 -330 78 -565
108 -850 108 -244 1 -321 -11 -419 -64 -212 -112 -410 -401 -428 -622 -12
-151 -57 -172 -175 -81 -31 24 -65 44 -76 44 -11 0 -44 -20 -73 -45 -31 -26
-63 -45 -77 -45 -49 0 -142 135 -142 206 0 17 -10 44 -22 59 -18 23 -26 26
-56 21 -19 -3 -47 -16 -61 -29 -37 -35 -64 -47 -104 -47 -40 0 -87 33 -87 60
0 38 -25 73 -65 91 -57 26 -67 13 -45 -59 10 -31 41 -156 69 -277 192 -816
362 -1166 723 -1485 358 -317 1016 -729 1236 -775 91 -19 85 -17 313 -129 106
-52 235 -108 284 -123 85 -26 100 -27 295 -27 160 0 242 5 370 23 535 74 740
135 1250 371 74 35 173 75 220 91 47 15 170 66 274 114 103 47 283 124 399
171 427 171 551 246 745 448 106 111 171 201 242 331 27 51 65 113 84 138 49
64 53 75 64 153 12 84 32 127 102 214 76 94 122 164 185 281 31 57 70 118 87
136 26 27 31 42 38 110 14 132 54 255 144 443 39 81 44 121 21 177 -21 50 -19
73 11 104 64 67 30 198 -47 182z m-2886 -447 c41 -8 95 -24 119 -36 55 -28
165 -110 173 -130 9 -21 -68 -86 -130 -109 -27 -10 -80 -22 -117 -26 -38 -3
-68 -10 -68 -14 0 -14 120 -63 156 -64 28 -1 44 9 102 66 80 76 107 90 153 77
77 -22 127 -78 162 -182 20 -58 21 -84 22 -328 0 -206 -4 -290 -18 -377 -31
-197 -73 -330 -123 -392 -12 -13 -41 -28 -69 -35 -37 -10 -53 -20 -63 -39 -16
-32 -81 -63 -237 -112 -66 -20 -174 -61 -240 -90 -177 -78 -344 -107 -488 -86
-111 16 -135 33 -187 137 -25 49 -53 109 -62 132 -19 49 -49 65 -149 81 -112
19 -469 36 -529 25 -53 -9 -55 -10 -87 -68 -74 -132 -211 -266 -272 -266 -97
0 -497 164 -583 238 -18 16 -64 49 -103 74 -121 78 -189 170 -220 300 -36 147
-27 503 16 658 26 96 71 176 152 270 67 78 197 200 280 263 l49 37 306 0 c333
0 689 -14 847 -32 144 -17 260 -12 730 32 145 13 398 11 478 -4z"/>
<path d="M2082 2869 c-18 -5 -35 -16 -38 -24 -11 -29 87 -175 117 -175 20 0
117 104 125 134 11 46 -20 68 -103 72 -37 2 -83 -1 -101 -7z"/>
<path d="M2372 2874 c-59 -13 35 -69 133 -79 121 -13 191 27 109 61 -38 16
-197 27 -242 18z"/>
<path d="M4265 2780 c-3 -6 1 -12 9 -15 9 -3 23 -7 31 -10 21 -6 68 13 60 25
-8 13 -92 13 -100 0z"/>
<path d="M7653 3492 c-30 -19 -40 -90 -22 -155 13 -48 36 -58 61 -27 27 34 22
156 -7 176 -11 7 -25 10 -32 6z"/>
</g>
</svg>
